<svg xmlns="http://www.w3.org/2000/svg" width="419.982" height="266.147" viewBox="0 0 419.982 266.147">
  <g id="login2" transform="translate(0 -169.273)">
    <g id="Group_4" data-name="Group 4">
      <path id="Path_1" data-name="Path 1" d="M299.44,391.44H416.2l3.76-74.09H295.68Z" fill="#ebebeb"/>
      <g id="Group_1" data-name="Group 1">
        <path id="Path_2" data-name="Path 2" d="M303.88,326H408.81l-1.59,24.81H305.24Z" fill="none" stroke="#dbdbdb" stroke-miterlimit="10" stroke-width="1"/>
        <path id="Path_3" data-name="Path 3" d="M307.09,358.09l1.11,22.31h97.62l1.4-22.31Z" fill="none" stroke="#dbdbdb" stroke-miterlimit="10" stroke-width="1"/>
        <path id="Path_4" data-name="Path 4" d="M367.65,340.74H346.66l-.69-5.29h22.37Z" fill="none" stroke="#dbdbdb" stroke-miterlimit="10" stroke-width="1"/>
        <path id="Path_5" data-name="Path 5" d="M367.65,371.89H346.66l-.69-5.29h22.37Z" fill="none" stroke="#dbdbdb" stroke-miterlimit="10" stroke-width="1"/>
      </g>
      <g id="Group_2" data-name="Group 2">
        <path id="Path_6" data-name="Path 6" d="M315.63,391.44l-1.13,8.07-2.28,16.22h-4.46V391.44Z" fill="#ebebeb"/>
        <path id="Path_7" data-name="Path 7" d="M315.63,391.44l-1.13,8.07h-6.74v-8.07Z" fill="#dbdbdb"/>
      </g>
      <g id="Group_3" data-name="Group 3">
        <path id="Path_8" data-name="Path 8" d="M400.01,391.44l1.13,8.07,2.29,16.22h4.45V391.44Z" fill="#ebebeb"/>
        <path id="Path_9" data-name="Path 9" d="M400.01,391.44l1.13,8.07h6.74v-8.07Z" fill="#dbdbdb"/>
      </g>
    </g>
    <path id="Path_10" data-name="Path 10" d="M419.96,415.73l-52.49.24-52.5.09-104.99.17-104.99-.17-52.49-.09L0,415.73l52.5-.24,52.49-.09,104.99-.17,104.99.17,52.5.09Z" fill="#263238"/>
    <g id="Group_41" data-name="Group 41">
      <g id="Group_49" data-name="Group 49">
        <g id="Group_5" data-name="Group 5">
          <path id="Path_11" data-name="Path 11" d="M43.59,415.08l171.54.74c41.69-32.74,46-81.25,16.26-110.65-18-17.78-40.86-14.2-62.63-17.02-.02,0-.04-.01-.06-.01-7.58-.99-15.02-2.76-22.08-6.48-22.41-11.82-35.05-39.72-53.9-63.18-2.35-2.94-4.8-5.8-7.38-8.56-15.51-16.56-46.37-17.1-62.51,6.18C-18.2,275.24.58,363.27,43.59,415.08Z" fill="#ffc727"/>
          <path id="Path_12" data-name="Path 12" d="M39.78,279.75c4.49,70.38,85.77,96.65,136.53,75.57,44.14-18.34,29.69-60.17-7.56-67.17-.02,0-.04-.01-.06-.01-7.58-.99-15.02-2.76-22.08-6.48-22.41-11.82-35.05-39.72-53.9-63.18-28.09-14.59-56.22,9.74-52.93,61.28Z" opacity="0.1"/>
        </g>
        <g id="Group_40" data-name="Group 40">
          <g id="Group_8" data-name="Group 8">
            <g id="Group_6" data-name="Group 6">
              <path id="Path_13" data-name="Path 13" d="M193.92,426.16c-2.65-.97-62.43-48.75-63.56-52.01-.43-1.24,6.02-10.35,14.12-21.14,1.75-2.33,3.57-4.73,5.44-7.15,12.08-15.74,25.27-32.16,25.27-32.16l40.08,31.84L188.9,376.82l-5.78,6.87s14.71,28.53,15.56,32.24-2.11,11.18-4.76,10.21Z" fill="#eb9481"/>
              <path id="Path_14" data-name="Path 14" d="M193.91,426.16c-2.64-.97-62.42-48.74-63.55-52-.36-1.01,3.84-7.23,9.79-15.31,8.69,10.39,39,41.32,47.28,45.46,5.26,2.63,4.21-2.53,2.25-7.66,4.04,8.07,8.53,17.3,9,19.3.83,3.71-2.11,11.19-4.76,10.22Z" fill="#263238"/>
            </g>
            <g id="Group_7" data-name="Group 7">
              <path id="Path_15" data-name="Path 15" d="M255.75,284.32c-2.75,20.82-54.07,80.94-60,87.83-.87,1.02-1.35,1.57-1.35,1.57L151.95,341.1l.49-.63,37.38-48.95S128,327.59,97.07,311.22c-13.88-7.35-24.18-20.42-24.18-20.42l40.37-21.52s11.17,3.61,18.31,2.57c24.61-3.6,79.75-24.54,92.83-24.01,16.88.69,33.87,17.38,31.35,36.48Z" fill="#263238"/>
              <path id="Path_16" data-name="Path 16" d="M195.41,304.47a54.862,54.862,0,0,0-11.84-4.74l.19-.26c7.17,2.22,14.79,4.93,19.36,11.24,2.1,2.92,3.41,6.8,2.58,10.4a6.716,6.716,0,0,1-7.63,5.17c-9.49-1.06-11.16-12.92-18.57-17.19a9.324,9.324,0,0,0-2.34-.96l.19-.25a12.081,12.081,0,0,1,4.18,2.26c3.56,2.91,5.49,7.15,8.31,10.69,2.71,3.39,7.21,6.44,11.73,4.76,4.98-1.83,4.62-8.31,2.73-12.27-1.84-3.86-5.25-6.73-8.89-8.84Zm-8.56,53.86a8.349,8.349,0,0,0-1.46,8.46l.44.33a10.1,10.1,0,0,1-.39-1.25c-1.27-5.06,1.97-8.95,6.8-10.08,4.54-1.06,9.15.08,13.74-.33a13.476,13.476,0,0,0,4.69-1.21c.14-.18.29-.36.43-.53-4.27,2.41-9.45,1.28-14.08,1.28-3.54,0-7.64.59-10.16,3.33Zm-20-36.73c2.06,6.86,8.75,12.19,15.27,14.4a25.8,25.8,0,0,0,12.33.99c4.97-.78,10.39-2.82,15.34-.94,4.93,1.87,6.84,7.96,5.28,12.73.15-.2.31-.39.46-.59a11.892,11.892,0,0,0-.06-6.07,9.255,9.255,0,0,0-5.6-6.35c-4.48-1.7-9.4-.2-13.9.65a26.691,26.691,0,0,1-14.15-.83,25.36,25.36,0,0,1-11.28-7.93,19.394,19.394,0,0,1-3.45-6.39l-.25.33Zm-6.35,26.07.24.18a24.642,24.642,0,0,1,1.24-3.05c1.58-3.18,4.8-5.61,8.48-4.29,4.12,1.46,6.64,6.39,6.76,10.55a29.376,29.376,0,0,1-1.28,8.47l.25.19a36.274,36.274,0,0,0,1.34-7.59,13.2,13.2,0,0,0-3.85-9.92c-2.27-2.2-5.49-3.14-8.39-1.58-2.42,1.28-3.67,3.87-4.55,6.35-.08.23-.17.46-.24.7Zm77.18-92.44a9.9,9.9,0,0,1,2.85-1.91,3.124,3.124,0,0,0-.3-.2,6.594,6.594,0,0,0-.65.33,9.215,9.215,0,0,0-4.74,9.45c.57,4.62,3.36,8.73,3.01,13.51a6.52,6.52,0,0,1-3.3,5.63,7.194,7.194,0,0,1-7-.83c-4.33-2.96-5.23-9.34-5.32-14.16a32.935,32.935,0,0,1,.91-8.4c.57-2.35,1.5-4.61,1.9-7a10.9,10.9,0,0,0,0-3.78,2.261,2.261,0,0,0-.26-.01c.48,2.69-.38,5.37-1.15,7.91a34.888,34.888,0,0,0-1.45,14.95c.53,4.02,1.84,8.7,5.53,10.97,2.86,1.77,6.88,1.78,9.04-1.08,2.21-2.91,1.56-7.14.51-10.37-1.6-4.97-4.02-10.73.43-15Zm-1.53,65.58c.15-.21.31-.43.45-.63.93-4.85.97-10.11,5.03-13.36a9.864,9.864,0,0,1,5.05-2.02c.08-.13.17-.26.24-.39a10.823,10.823,0,0,0-4.27,1.35c-5.43,3.1-5.24,9.47-6.5,15.04Zm-19.61,3.43c2.34,4.47,8.29,7.08,13.11,5.58.13-.18.25-.34.38-.52a10.163,10.163,0,0,1-6.39.18,11.188,11.188,0,0,1-7.96-8.63,16.736,16.736,0,0,1,3.2-13.06c2.91-3.91,7.18-6.57,11.62-8.42,7.66-3.18,16.98-3.56,23.56-8.96.1-.25.19-.5.29-.75a20.216,20.216,0,0,1-4.52,3.07c-4.55,2.27-9.61,3.16-14.46,4.6a38.507,38.507,0,0,0-12.01,5.63c-6.35,4.69-10.8,13.65-6.81,21.28Zm-35.42-65.62c-.1.04-.19.07-.29.1a19.181,19.181,0,0,1,2.6,3.49c4.93,8.41,4.27,18.83,8.98,27.35,1.85,3.33,4.55,6.36,8.18,7.76a12.621,12.621,0,0,0,9.8-.15,8.863,8.863,0,0,0,4.97-8.19c-.04-3.85-2.01-7.57-4.54-10.37-3.17-3.51-7.33-5.93-10.88-9.01a22.182,22.182,0,0,1-7.62-12.37c-.12-.63-.21-1.26-.27-1.9-.09.02-.18.06-.27.08a20.545,20.545,0,0,0,2.17,7.3c2.04,3.97,5.35,6.88,8.84,9.54,3.78,2.89,7.82,5.67,10.23,9.87,2.27,3.97,3.17,9.33-.24,12.95-2.74,2.92-7.3,3.37-10.98,2.32-4.35-1.25-7.47-4.78-9.49-8.7-4.38-8.56-3.75-18.94-8.91-27.15a17.558,17.558,0,0,0-2.28-2.92ZM157.9,274.13a30.535,30.535,0,0,0,3.84,12.2,23.091,23.091,0,0,0,9.29,8.67,46.906,46.906,0,0,0,6.7,2.84c.13-.06.26-.13.38-.19a41.14,41.14,0,0,1-8.69-3.91,22.774,22.774,0,0,1-9.13-10.99,29.458,29.458,0,0,1-1.59-17.43c-.11.02-.2.06-.3.08a26.691,26.691,0,0,0-.51,8.72Zm-22.79,39.19c.11-.01.2-.04.31-.06,1.28-3.99,3.68-7.56,8.14-8.47a11.373,11.373,0,0,1,10.3,3.14c.08-.04.17-.06.25-.1a11.551,11.551,0,0,0-4.36-2.83,11.185,11.185,0,0,0-10.12,1.24A13.24,13.24,0,0,0,135.11,313.32Zm-29.04,1.08c.26.07.53.12.82.17a5.379,5.379,0,0,1,.9-.04,6.84,6.84,0,0,1,2.61.58c.26.04.52.06.8.08a7.794,7.794,0,0,0-5.13-.8Zm30.5-32.49c-.2,3.49.05,7.08,2.25,9.97,1.9,2.5,5.11,3.02,7.28.49,2.78-3.23,3.13-8.57,2.89-12.61a50.641,50.641,0,0,0-2.19-11.18,2.8,2.8,0,0,0-.31.08c.32,1.07.62,2.13.88,3.18,1.3,5.25,2.01,10.85.5,16.12-.68,2.4-1.95,5.39-4.75,5.77-2.09.29-3.71-1.31-4.68-2.97-2.26-3.87-1.68-8.4-1.26-12.67.24-2.47.55-4.96.7-7.44a2.274,2.274,0,0,1-.3.06c-.24,3.73-.78,7.44-1.01,11.18Zm-24.78-6.19c.45,4.84-.19,9.65.01,14.48.17,4.02,1.32,8.14,4.76,10.56a6.884,6.884,0,0,0,9.33-.96c2.9-3.22,2.92-7.66,2.04-11.67-1.18-5.38-3.03-10.67-4.57-15.95-.06-.2-.12-.42-.19-.63-.12-.02-.24-.05-.36-.06.07.26.15.51.23.76.8,2.71,1.58,5.41,2.38,8.1,1.49,5.05,4.03,11.06,2,16.29a8.1,8.1,0,0,1-4.92,4.98,7.072,7.072,0,0,1-6.74-1.96c-4.02-3.75-3.77-9.57-3.54-14.6a56.076,56.076,0,0,0-.67-13.33c-.08-.44-.2-.92-.33-1.4l-.29.15a37.272,37.272,0,0,1,.86,5.23ZM76.82,288.67c4.67,4.79,7.72,11.41,14.9,12.8,2.79.53,6.05.17,7.96-2.16,2.69-3.26,1.37-7.99-.11-11.45-1.31-3.07-3.1-5.88-4.69-8.81l-.26.14c.39.75.82,1.5,1.24,2.22,2.46,4.33,6.08,9.9,4.84,15.13-1.06,4.46-5.76,5.45-9.67,4.44-6.57-1.68-9.55-7.88-13.93-12.45l-.27.14Z" fill="#455a64"/>
              <path id="Path_17" data-name="Path 17" d="M203.25,273.33a50,50,0,0,0-3.86,4.94c-1.32,1.73-2.66,3.45-3.98,5.18l-.04.05c.23-.51.46-1.02.71-1.52.83-1.72,1.5-3.51,2.48-5.16.06-.1-.09-.19-.16-.1-1.01,1.64-2.19,3.19-3.05,4.92-.41.81-.79,1.63-1.15,2.47-.2.46-.4.91-.58,1.38a6.607,6.607,0,0,0-.24.67c-.59.8-1.18,1.61-1.74,2.43-1.26,1.82-2.37,3.75-3.64,5.56-.07.1.09.19.16.09,1.29-1.7,2.74-3.29,4.05-4.97,1.33-1.72,2.6-3.48,3.85-5.26,1.22-1.74,2.41-3.49,3.63-5.23a52.593,52.593,0,0,0,3.68-5.37.073.073,0,0,0-.11-.09Z" fill="#37474f"/>
              <path id="Path_18" data-name="Path 18" d="M160.46,333.68c2.33,2.16,4.84,4.16,7.3,6.17s4.95,4.03,7.44,6.02c4.98,3.99,9.95,8.01,14.99,11.94,2.77,2.15,5.56,4.28,8.44,6.28.13.09.27-.12.16-.22-4.72-4.29-9.76-8.22-14.74-12.2s-9.99-7.96-15.04-11.88c-2.76-2.14-5.51-4.35-8.4-6.32-.12-.08-.24.1-.14.2Z" fill="#37474f"/>
            </g>
          </g>
          <g id="Group_36" data-name="Group 36">
            <path id="Path_19" data-name="Path 19" d="M126.24,225.3a2.914,2.914,0,0,1-1.35,2.62,21.064,21.064,0,0,1-2.3,1.36c.12-2.91-.11-5.91-.28-8.77-.2-3.37-.62-6.66-1.11-9.98,0-.05-.08-.04-.08.01.26,3.37.41,6.76.58,10.14.15,2.95.08,5.95.25,8.9-.82.38-1.66.73-2.5,1.04.02-1.03.03-2.06.02-3.1,0-3.11-.28-6.18-.44-9.28,0-.08-.1-.08-.1,0,.12,3.02-.01,6.08-.04,9.1,0,1.17-.03,2.33-.06,3.5-.58.2-1.16.39-1.73.56-.38.12-.76.23-1.15.32-.02-2.04-.16-4.09-.24-6.09-.12-3.23-.44-6.44-.61-9.67a.08.08,0,1,0-.16,0c.15,3.21.1,6.45.18,9.67.05,2.07.02,4.19.08,6.28a44.091,44.091,0,0,1-15.65.82,67.361,67.361,0,0,1-8.98-1.71c-.71-.18-2.54-.71-4.33-1.26-.02-.97-.06-1.95-.07-2.89-.02-2.15-.15-4.32-.11-6.46a.04.04,0,1,0-.08,0c-.11,2.16-.34,4.3-.38,6.46-.02.87-.05,1.77-.06,2.67-.64-.2-1.26-.4-1.8-.58.2-4.07-.05-8.19-.07-12.24,0-.1-.12-.1-.13,0-.16,3.98-.54,8.01-.49,12.01a6.115,6.115,0,0,1-1.19-.49c-.89-.74-.29-16.8-.24-20.55.1-6.99.9-17.29,2.88-23.99a20.445,20.445,0,0,1,11.26-13.45c2.64-1.18,5.72-1,8.54-.91a16.709,16.709,0,0,1,8.27,2.61,17.821,17.821,0,0,1,6.28,5.77,35.547,35.547,0,0,1,3.61,8.62c2.09,7.1,2.86,26.55,3.37,33.45.13,1.83.36,3.69.39,5.52Z" fill="#263238"/>
            <g id="Group_13" data-name="Group 13">
              <g id="Group_11" data-name="Group 11">
                <path id="Path_20" data-name="Path 20" d="M90.97,225.97c10.27,19.45,26.73,41.66,32,44.58,6.67,3.68,43.16,2.13,44.96,1.85,4.46-.72,6.03-32.77,1.23-32.21-7.32.86-33.3,6.28-35.25,5.11-2.03-1.22-16.47-11.98-31.68-24.43-10.5-8.6-17.63-6.97-11.26,5.1Z" fill="#eb9481"/>
                <g id="Group_10" data-name="Group 10">
                  <path id="Path_21" data-name="Path 21" d="M163.17,271a95.522,95.522,0,0,0,13.22,3.23c3.54.43,13.75,1.38,14.61-2.46.59-2.62-5.35-3.89-9.53-4.88-2.2-.52-5.1-2.26-4.7-3.69.68-2.49,6.37-1.03,10.19.43,7.39,2.82,17.54,8.41,21.1,4.31,1.35-1.55-.85-3.61-3.87-5.49,4.74,1.99,9.68,3.45,11.24,1.79.9-.95.77-2.03,0-3.16a3.044,3.044,0,0,0,3.23-1.06c1.16-1.69.12-3.74-1.76-5.7a1.677,1.677,0,0,0,1.13-1.04c2.22-4.99-14.7-15.52-20.01-15.89-15.64-1.12-32.43,3.73-32.43,3.73-5.14,5.69-2.42,29.87-2.4,29.88Z" fill="#eb9481"/>
                  <g id="Group_9" data-name="Group 9">
                    <path id="Path_22" data-name="Path 22" d="M183.04,253.52a26.02,26.02,0,0,1,10.68,2.22c4.23,1.9,7.24,4.43,10.93,6.88a.09.09,0,0,1-.1.15c-1.76-1.16-8.95-5.44-10.78-6.38a24.7,24.7,0,0,0-10.74-2.82.03.03,0,0,1,0-.06Z" fill="#263238"/>
                    <path id="Path_23" data-name="Path 23" d="M184.81,246.67a61.531,61.531,0,0,1,12.35,2.14c4.36,1.39,8.05,4.22,11.67,6.93q3.255,2.445,6.41,5.02c.09.07,0,.22-.1.15q-5.52-4.215-11.29-8.09a32.837,32.837,0,0,0-11.76-4.98c-2.41-.49-4.84-.8-7.28-1.11-.05,0-.04-.08,0-.07Z" fill="#263238"/>
                    <path id="Path_24" data-name="Path 24" d="M188.12,240.39c3.97.16,7.44.29,11.18,1.79,4.95,1.99,10.06,5.88,11.85,7.26,1.98,1.52,3.91,3.11,5.81,4.73.08.07-.04.2-.11.14a130.412,130.412,0,0,0-13.63-9.7,25.454,25.454,0,0,0-7.26-3.19,46.973,46.973,0,0,0-7.84-1,.015.015,0,1,1,0-.03Z" fill="#263238"/>
                  </g>
                </g>
              </g>
              <g id="Group_12" data-name="Group 12">
                <path id="Path_25" data-name="Path 25" d="M105.78,254.44l11.52-25.25a179.51,179.51,0,0,0-17.54-12.15c-10.3-6.29-15.27-2.72-8.98,12.29A103.532,103.532,0,0,0,105.78,254.44Z" fill="#455a64"/>
                <path id="Path_26" data-name="Path 26" d="M113.62,227.51c-1.07,1.77-1.87,3.72-2.79,5.57-.87,1.77-1.75,3.54-2.56,5.34q-2.535,5.595-4.83,11.29c-.03.07.08.12.11.06q2.7-5.445,5.26-10.95c.85-1.83,1.65-3.68,2.45-5.53.82-1.9,1.79-3.77,2.47-5.73.02-.07-.08-.12-.11-.06Z" fill="#263238"/>
                <path id="Path_27" data-name="Path 27" d="M90.78,229.34a103.783,103.783,0,0,0,15,25.11l9.63-21.1L90.39,214.34c-3.11,1.06-3.41,5.95.38,15.01Z" opacity="0.1"/>
              </g>
            </g>
            <g id="Group_15" data-name="Group 15">
              <path id="Path_28" data-name="Path 28" d="M52.3,299.19c2.35.83,70.36-16.76,70.36-16.76l-7.3-23.65s4.15-7.42,2.53-14.72c-2.16-9.75-19.63-26.17-21.01-27.15-5.55-3.91-10.85-4-15.6-1.64-19.8,9.81-28.99,83.92-28.99,83.92Z" fill="#455a64"/>
              <g id="Group_14" data-name="Group 14">
                <path id="Path_29" data-name="Path 29" d="M93.77,256.47a59.275,59.275,0,0,1,8.82-.72c1.47,0,2.92.09,4.39.19.73.05,1.46.08,2.19.11a9.145,9.145,0,0,0,2.28-.13.051.051,0,1,1,.02.1,16.978,16.978,0,0,1-2.11.49,14.706,14.706,0,0,1-2.1.12c-1.49,0-2.98-.06-4.46-.07-3-.02-6-.04-9,.16a.122.122,0,0,1-.02-.24Z" fill="#263238"/>
                <path id="Path_30" data-name="Path 30" d="M87.36,260.76a65.376,65.376,0,0,1,6.99-2.11c1.19-.28,2.38-.49,3.58-.67.58-.09,1.15-.16,1.73-.23.64-.08,1.28-.07,1.92-.15.07,0,.09.09.02.1-.6.1-1.18.29-1.77.43s-1.18.26-1.78.39c-1.19.27-2.37.54-3.55.8-2.38.51-4.74,1.04-7.1,1.63-.13.03-.16-.15-.05-.19Z" fill="#263238"/>
              </g>
            </g>
            <g id="Group_23" data-name="Group 23">
              <g id="Group_21" data-name="Group 21">
                <g id="Group_20" data-name="Group 20">
                  <path id="Path_31" data-name="Path 31" d="M73.08,223.73c-9.46,13.94-29.71,61.97-19.92,69.41,9.86,7.5,57.36-9.63,70.33-17.76,3.86-2.42-14.62-26.09-19.49-26.12-4.05-.03-22.51,11.24-23.24,10.13-.82-1.25,1.76-11.14,4.62-29.47,3.29-21.13-6.85-14.2-12.29-6.18Z" fill="#eb9481"/>
                  <g id="Group_19" data-name="Group 19">
                    <g id="Group_18" data-name="Group 18">
                      <path id="Path_32" data-name="Path 32" d="M123.34,238.68c9.77-2.54,12.66-1.69,19.77-8.2,4.66-4.28,9.4-3.13,7.17,3.06-3.64,10.13-15.55,16.05-20.28,16.91l-6.67-11.77Z" fill="#eb9481"/>
                      <path id="Path_33" data-name="Path 33" d="M98.08,251.3s10.44-7.49,20.58-11.22c7.01-2.58,22.9-6.49,40.17,7.62,4.1,3.35,7.56,11.02-1.12,7.99-6.16-2.16-9.42-5.39-13.23-5.99,0,0,3.25,10.29-.27,14.26a97.691,97.691,0,0,1-9.92,9.73A20.484,20.484,0,0,1,132.3,272s-3.63,3.4-11.2,3.56L98.08,251.31Z" fill="#eb9481"/>
                      <g id="Group_17" data-name="Group 17">
                        <path id="Path_34" data-name="Path 34" d="M125.74,238.69c3.66,1.4,11.36,4.49,16.79,9.22,6.02,5.25,16.21,16.97,12.29,21.38-2.87,3.23-7.16-.91-7.16-.91s3.19,5.74-.04,8.09c-2.95,2.14-6.07-1.26-6.07-1.26s1.34,3.81-1.9,5.33c-3.89,1.82-6.05-6.46-11.59-8.02-1.24-.35-2.32-33.83-2.32-33.83Z" fill="#eb9481"/>
                        <g id="Group_16" data-name="Group 16">
                          <path id="Path_35" data-name="Path 35" d="M135.93,253.34c3.23,1.88,9.45,8.03,11.78,14.87.05.16-.04.28-.11.15a78.418,78.418,0,0,0-11.71-14.96c-.03-.03.01-.08.05-.06Z" fill="#263238"/>
                          <path id="Path_36" data-name="Path 36" d="M130.81,259.57c2.62,1.91,8.75,8.53,10.87,15.55.05.16-.05.27-.12.14a84.15,84.15,0,0,0-10.8-15.64C130.73,259.59,130.78,259.54,130.81,259.57Z" fill="#263238"/>
                        </g>
                      </g>
                    </g>
                    <path id="Path_37" data-name="Path 37" d="M144.47,249.63c3.35.58,5.63,1.92,8.59,3.5a47.112,47.112,0,0,0,4.47,2.16c1.4.56,3.47,1.41,4.74.13a2.66,2.66,0,0,0,.29-2.71,13.153,13.153,0,0,0-2.21-3.48c-.03-.04.03-.1.07-.06a19.085,19.085,0,0,1,2.33,3.05,4.379,4.379,0,0,1,.59,2.49c-.27,1.84-2.34,2.32-3.89,2a14.3,14.3,0,0,1-2.69-.94c-.84-.36-1.66-.76-2.46-1.18-1.66-.86-3.27-1.82-4.91-2.7a42.455,42.455,0,0,0-4.94-2.16.059.059,0,0,1,.04-.11Z" fill="#263238"/>
                    <path id="Path_38" data-name="Path 38" d="M152.57,260.23a101.417,101.417,0,0,0-8.15-10.51c-.04-.04.01-.11.06-.07,2.8,2.1,7.59,7.98,8.77,9.9,1.17,1.9,2.54,4.35,2.8,6.59.39,3.38-1.78,4.28-2.58,4.54a4.4,4.4,0,0,1-2.93-.14,8.847,8.847,0,0,1-2.89-2.15c-.04-.04.01-.11.06-.07,1.33,1.2,3.42,2.28,5.23,1.83a3.107,3.107,0,0,0,1.96-1.37,4,4,0,0,0,.22-2.79,18.719,18.719,0,0,0-2.54-5.77Z" fill="#263238"/>
                  </g>
                </g>
                <path id="Path_39" data-name="Path 39" d="M80.76,259.39a53.015,53.015,0,0,1-4.61,3.03,55.009,55.009,0,0,1-4.85,2.62,26.358,26.358,0,0,1,4.47-3.26,27.529,27.529,0,0,1,4.99-2.38Z" fill="#263238"/>
              </g>
              <g id="Group_22" data-name="Group 22">
                <path id="Path_40" data-name="Path 40" d="M57.28,249.12l27.67-2.1a178.393,178.393,0,0,0,2.17-21.23c.53-12.06-4.99-14.68-15.1-1.93a103.4,103.4,0,0,0-14.75,25.26Z" fill="#455a64"/>
                <path id="Path_41" data-name="Path 41" d="M84.65,242.98c-2.07-.08-4.16.15-6.23.25-1.97.09-3.95.18-5.91.34-4.09.32-8.15.73-12.22,1.22-.07,0-.07.13,0,.13q6.075-.255,12.13-.68c2.01-.14,4.02-.33,6.02-.52,2.06-.2,4.17-.25,6.21-.6a.066.066,0,0,0,0-.13Z" fill="#263238"/>
                <path id="Path_42" data-name="Path 42" d="M85.74,244.27c.17-1,.3-2,.42-3.01.02-.21.05-.41.07-.62A35.3,35.3,0,0,0,87.3,237c0-.04-.05-.07-.07-.02a28.885,28.885,0,0,0-.9,2.77,45.011,45.011,0,0,0,.32-4.63c0-.05-.07-.05-.08,0-.37,1.99-.6,4.01-.9,6.02-.14.97-.74,5.76-.8,5.77,0,0-2.31.25-2.45.31-.16.07-.08.19-.02.19s2.86-.21,2.86-.21c.01-.03.32-2.07.46-2.92Z" fill="#263238"/>
              </g>
            </g>
            <g id="Group_26" data-name="Group 26">
              <g id="Group_24" data-name="Group 24">
                <rect id="Rectangle_1" data-name="Rectangle 1" width="76.46" height="3.42" transform="translate(112.14 272.65)" fill="#c7c7c7"/>
                <path id="Path_43" data-name="Path 43" d="M188.6,272.65v3.43H142.74l2.62-3.43Z" fill="#a6a6a6"/>
              </g>
              <g id="Group_25" data-name="Group 25">
                <path id="Path_44" data-name="Path 44" d="M154.08,276.08H228.6l6.2-50.61H160.29Z" fill="#a6a6a6"/>
                <path id="Path_45" data-name="Path 45" d="M157.98,276.08H232.5l6.2-50.61H164.19Z" fill="#c7c7c7"/>
                <path id="Path_46" data-name="Path 46" d="M193.81,250.77a4.45,4.45,0,0,0,4.46,4.54,4.638,4.638,0,0,0,4.62-4.54,4.444,4.444,0,0,0-4.46-4.54A4.638,4.638,0,0,0,193.81,250.77Z" fill="#fff"/>
              </g>
            </g>
            <g id="Group_35" data-name="Group 35">
              <g id="Group_27" data-name="Group 27">
                <path id="Path_47" data-name="Path 47" d="M86.02,216.95c.07,1.25,4.41,10.07,9.95,10.79,1.8.23,3.51-9.56,3.51-9.56l.29-.69,4.06-9.71L91.77,196.72s-5.76,19.7-5.74,20.23Z" fill="#eb9481"/>
                <path id="Path_48" data-name="Path 48" d="M103.83,207.77l-4.07,9.72a21.151,21.151,0,0,1-9.95-14.03c.98-3.42,1.81-6.26,1.93-6.68a.119.119,0,0,0,.02-.06l1.54,1.31,10.53,9.74Z" fill="#263238"/>
              </g>
              <g id="Group_34" data-name="Group 34">
                <path id="Path_49" data-name="Path 49" d="M119.58,194.42c-1.67,18.41-12.88,19.48-16.85,19.12-3.6-.33-15.83-1.92-16.07-20.4s8.85-23.52,17.13-23.2S121.25,176.01,119.58,194.42Z" fill="#eb9481"/>
                <g id="Group_32" data-name="Group 32">
                  <path id="Path_50" data-name="Path 50" d="M117.25,191.8a12.193,12.193,0,0,1-1.19-.46,2.035,2.035,0,0,1-1.12-.7.654.654,0,0,1,.13-.79,1.623,1.623,0,0,1,1.65-.12,2.376,2.376,0,0,1,1.35,1.08.7.7,0,0,1-.81.99Z" fill="#263238"/>
                  <path id="Path_51" data-name="Path 51" d="M104.52,191.21c.44.02.84-.04,1.27-.06a2.071,2.071,0,0,0,1.29-.31.656.656,0,0,0,.13-.79,1.637,1.637,0,0,0-1.53-.63,2.36,2.36,0,0,0-1.62.6.7.7,0,0,0,.45,1.2Z" fill="#263238"/>
                  <g id="Group_29" data-name="Group 29">
                    <g id="Group_28" data-name="Group 28">
                      <path id="Path_52" data-name="Path 52" d="M106.67,194.36s-.11.05-.11.1c-.13,1.25-.49,2.66-1.68,2.92-.04,0-.04.07,0,.07,1.4,0,1.87-1.88,1.79-3.09Z" fill="#263238"/>
                      <path id="Path_53" data-name="Path 53" d="M105.73,192.9c-1.98-.43-2.7,3.57-.86,3.97C106.68,197.26,107.39,193.26,105.73,192.9Z" fill="#263238"/>
                    </g>
                    <path id="Path_54" data-name="Path 54" d="M104.91,192.97c-.39.16-.8.5-1.23.47-.5-.04-.79-.52-1.04-.98-.03-.05-.07-.02-.08.03a1.472,1.472,0,0,0,.81,1.86c.73.24,1.39-.34,1.72-1.08.06-.14-.03-.37-.18-.3Z" fill="#263238"/>
                  </g>
                  <g id="Group_31" data-name="Group 31">
                    <g id="Group_30" data-name="Group 30">
                      <path id="Path_55" data-name="Path 55" d="M114.03,195.34s.09.08.07.13c-.27,1.23-.37,2.68.67,3.3.03.02.02.08-.02.07-1.33-.45-1.18-2.37-.72-3.5Z" fill="#263238"/>
                      <path id="Path_56" data-name="Path 56" d="M115.38,194.26c2.02.22,1.43,4.24-.44,4.04C113.1,198.1,113.69,194.08,115.38,194.26Z" fill="#263238"/>
                    </g>
                    <path id="Path_57" data-name="Path 57" d="M116.18,194.64c.29.26.54.69.92.77.44.09.82-.29,1.17-.67.04-.04.06,0,.06.05-.09.77-.46,1.53-1.22,1.57-.69.04-1.09-.7-1.16-1.49-.01-.15.13-.35.24-.24Z" fill="#263238"/>
                  </g>
                  <path id="Path_58" data-name="Path 58" d="M104.49,204.8c.22.36.41.83.84.98a3.424,3.424,0,0,0,1.39.03c.04,0,.07.05.04.08a1.7,1.7,0,0,1-1.72.27,1.322,1.322,0,0,1-.68-1.32c0-.08.1-.08.13-.03Z" fill="#263238"/>
                  <path id="Path_59" data-name="Path 59" d="M110.7,200.97s-.1,1.89-.27,2.76c-.02.08-.23.08-.53.04h-.03a4.219,4.219,0,0,1-3.72-2.33.092.092,0,0,1,.15-.1,6.333,6.333,0,0,0,3.57,1.82c.11-.23.07-3.25.21-3.23a7.848,7.848,0,0,1,1.89.83c.33-3.94.03-7.9.42-11.82a.122.122,0,0,1,.24-.01,63.939,63.939,0,0,1,.09,12.75c-.02.51-1.69-.49-2.01-.71Z" fill="#263238"/>
                </g>
                <path id="Path_60" data-name="Path 60" d="M86.88,194.2c2.99.73,4.64-6.17,4.64-6.17s6.14,1.03,9.63-7.47a13.787,13.787,0,0,1-3.93,6.86s11.11,1.31,17.17-7c0,0-2.58,4.32-4.56,5.68,0,0,4.75-.52,7.58-3.84,0,0,1.03,5.55,2.26,7.23,0,0,2.68-19.04-15.22-19.92,0,0-11.12-1.09-16.51,6.97s-1.07,17.66-1.07,17.66Z" fill="#263238"/>
                <g id="Group_33" data-name="Group 33">
                  <path id="Path_61" data-name="Path 61" d="M89.46,194.82s-2.95-6.39-5.78-5.43-1.32,9.72,1.51,11.39a3.127,3.127,0,0,0,4.42-.92l-.14-5.04Z" fill="#eb9481"/>
                  <path id="Path_62" data-name="Path 62" d="M84.17,191.89s-.07.05-.03.08c1.97,1.24,2.73,3.41,3.15,5.58a1.727,1.727,0,0,0-2.46-.92c-.06.03-.02.13.04.12a1.916,1.916,0,0,1,1.96,1.03,9.478,9.478,0,0,1,.7,1.86c.07.21.43.17.39-.06v-.05c.54-2.69-.89-6.86-3.74-7.65Z" fill="#263238"/>
                </g>
              </g>
            </g>
          </g>
          <g id="Group_39" data-name="Group 39">
            <g id="Group_37" data-name="Group 37">
              <path id="Path_63" data-name="Path 63" d="M348.89,372.01c-.98,2.64-48.95,62.27-52.21,63.39-1.24.43-10.33-6.05-21.09-14.19-2.32-1.76-4.71-3.59-7.13-5.46-15.7-12.13-32.08-25.37-32.08-25.37l31.97-39.98,31.2,26.47,6.85,5.81s28.58-14.61,32.29-15.46c3.7-.83,11.18,2.15,10.2,4.79Z" fill="#eb9481"/>
              <path id="Path_64" data-name="Path 64" d="M348.9,372.01c-.98,2.64-48.95,62.27-52.21,63.39-1.08.38-8.17-4.53-17.13-11.21,9.15-6.66,43.89-37.96,48.55-46.43,2.46-4.46-1.13-4.42-5.51-3.19,7.16-3.52,14.36-6.95,16.1-7.34,3.71-.83,11.17,2.15,10.2,4.79Z" fill="#263238"/>
            </g>
            <g id="Group_38" data-name="Group 38">
              <path id="Path_65" data-name="Path 65" d="M297.88,370.84l-33.27,44.89L152.34,337.82l-10.83-7.52s-3.07,2.06-7.68,4.61c-6.41,3.54-15.8,8.03-24.11,9.25-13.94,2.06-37.21,1.84-48.96-13.87-9.89-13.23-4.52-30.48-4.52-30.48l15.3-6.57s36.22-30.17,59.68-31.08c9.96-.4,24.47,7.16,37.91,15.05s128.75,93.63,128.75,93.63Z" fill="#263238"/>
              <path id="Path_66" data-name="Path 66" d="M294.15,368.07c.18,1.97.34,3.95.52,5.92.04.36.06.7.09,1.06l-.34.45q-.375-3.87-.7-7.75c.15.11.29.21.43.32Zm-19.23-14.25-.39-.29a20.972,20.972,0,0,0,.61,3.91c1.11,4.49,3.45,8.71,5.57,12.79a128.023,128.023,0,0,1,6.89,14.47l.23-.3a96.844,96.844,0,0,0-5.11-11.12c-2.41-4.62-5.13-9.28-6.75-14.27a22.329,22.329,0,0,1-1.05-5.19Zm-14.19,50.77a12.659,12.659,0,0,1-3.36,6.12l.24.17a12.2,12.2,0,0,0,2.96-4.63c1.49-4.17.89-8.76.29-13.04-.68-4.63-2.01-10.1-.3-14.65a5.689,5.689,0,0,1,5.41-4.02,8.1,8.1,0,0,1,5.44,2.82c3.68,3.96,2.93,9.23,1.54,14.01-1.22,4.22-2.92,8.37-2.64,12.85a15.461,15.461,0,0,0,.51,3.14l.24-.33c-2.17-8.23,4.52-16.07,3.3-24.42a10.4,10.4,0,0,0-5.77-7.72,5.87,5.87,0,0,0-8.02,2.84c-1.79,3.71-1.06,8.35-.51,12.27.68,4.78,1.79,9.82.68,14.6Zm-27.91-10.92.32.23a18.848,18.848,0,0,1,1.81-5.26,25.781,25.781,0,0,1,9.46-10.06c3.74-2.32,7.96-3.79,11.67-6.17a18.246,18.246,0,0,0,7.6-9.6,28.474,28.474,0,0,0,1.59-12.63,16.237,16.237,0,0,0-1.12-4.3c-.12-.11-.25-.2-.38-.3a19.883,19.883,0,0,1,1.16,10.75c-.65,5.01-2.33,10.22-6.17,13.71-3.4,3.09-7.82,4.73-11.85,6.81-6.7,3.45-12.5,9.32-14.1,16.83Zm-3.02-24.56c2.74,1.82,6.27,2.32,9.03.27,3.04-2.25,3.83-6.42,3.79-9.97-.05-4.85-1.6-10.31,1.03-14.77a12.42,12.42,0,0,1,11.64-5.32c-.14-.11-.3-.21-.44-.32a13.572,13.572,0,0,0-2.99.13,12.182,12.182,0,0,0-7.7,4.28c-2.73,3.43-2.42,8.02-2.08,12.13.36,4.31.7,9.6-2.65,12.94-3.52,3.52-8.63,1.71-11.66-1.46-6.77-7.13-3.8-19,3.26-24.72,4.92-3.98,11.07-5.77,16.68-8.57l-.29-.21c-.8.4-1.6.78-2.41,1.14-7.05,3.17-15.1,5.91-19.01,13.13-3.73,6.9-3.18,16.68,3.79,21.32Zm3.24-41.26a10.4,10.4,0,0,0,2.26-3.26,2.975,2.975,0,0,0-.29-.2,10.9,10.9,0,0,1-.8,1.51c-2.29,3.61-6.59,4.73-10.59,3.59a11.188,11.188,0,0,1-7.96-8.63,15.876,15.876,0,0,1,1.25-9.73c-.07-.05-.14-.09-.2-.14-1.98,4.17-2.45,8.92-.18,13.26,2.93,5.61,11.6,8.31,16.5,3.6Zm-22.58,48.04c-.93.1-1.85.23-2.77.34l.38.26a1.228,1.228,0,0,0,.19-.02c5.03-.71,10.58-.96,14.01,3.51a11.673,11.673,0,0,1,2.31,7.97l.32.23a11.958,11.958,0,0,0-3.01-9.11c-2.96-3.24-7.3-3.62-11.43-3.17Zm.83-22.29c-4.3,2.57-9.58,1.4-14.29,1.4-3.54,0-7.64.59-10.16,3.33a7.376,7.376,0,0,0-1.49,2.41l.31.21a8.992,8.992,0,0,1,6.56-5.16c4.54-1.06,9.15.08,13.74-.33,3.47-.3,6.81-1.65,8.58-4.8a11.534,11.534,0,0,0,.93-8.56,9.255,9.255,0,0,0-5.6-6.35c-4.48-1.7-9.4-.2-13.9.65a26.691,26.691,0,0,1-14.15-.83,25.36,25.36,0,0,1-11.28-7.93c-3.22-4.02-5.41-9.73-3.07-14.69a8.315,8.315,0,0,1,12.01-3.9c7.41,4.28,9.08,16.14,18.57,17.19a6.713,6.713,0,0,0,7.63-5.17c.83-3.6-.48-7.47-2.58-10.4-4.86-6.73-13.2-9.35-20.76-11.68-4.44-1.37-8.96-2.78-12.93-5.26a22.774,22.774,0,0,1-9.13-10.99A31.558,31.558,0,0,1,158,270.96a1.5,1.5,0,0,0-.25-.13,23.616,23.616,0,0,0,.13,3.28,30.535,30.535,0,0,0,3.84,12.2,23.091,23.091,0,0,0,9.29,8.67c7.74,4.12,16.77,5.01,24.37,9.45,3.64,2.12,7.05,4.98,8.89,8.84,1.89,3.97,2.25,10.44-2.73,12.27-4.52,1.68-9.02-1.38-11.73-4.76-2.82-3.54-4.74-7.78-8.31-10.69-2.97-2.42-7-3.65-10.5-1.58a10.408,10.408,0,0,0-4.79,9.52c.44,8.53,8.28,15.36,15.89,17.94a25.8,25.8,0,0,0,12.33.99c4.97-.78,10.39-2.82,15.34-.94,6.96,2.64,7.93,13.72,1.51,17.55Zm-49.47-9.19.25.18c1.62-3.09,4.78-5.38,8.38-4.09,4.12,1.46,6.64,6.39,6.76,10.55a21.485,21.485,0,0,1-.26,3.85l.25.18a24.137,24.137,0,0,0,.32-2.96,13.2,13.2,0,0,0-3.85-9.92c-2.27-2.2-5.49-3.14-8.39-1.58A8.418,8.418,0,0,0,161.82,344.41ZM133.21,333c-.04.76-.08,1.54-.14,2.32.12-.06.25-.13.37-.19.51-6.57-.05-13.36,1.39-19.73,1.09-4.8,3.48-9.53,8.72-10.61a11.477,11.477,0,0,1,12.05,5.35,15.2,15.2,0,0,1,.86,13.48c-1.76,4.38-4.91,7.99-7.82,11.64l.2.14c5.16-6.54,11.32-13.88,8.21-22.73a12.266,12.266,0,0,0-7.31-7.66,11.185,11.185,0,0,0-10.12,1.24c-3.61,2.64-4.85,7.45-5.5,11.63-.77,5-.64,10.08-.9,15.13Zm-35.95,5.67a42.422,42.422,0,0,1,.32,6.4h.29c.23-7.51-2.7-15.23-.18-22.55,1.43-4.12,5.48-8.13,10.09-7.99,4.72.14,7.32,4.56,7.95,8.75,1,6.65-2.84,13.58-2.39,20.15.09-.02.19-.05.3-.07a15.413,15.413,0,0,1-.01-2.63c.39-5.01,2.53-9.77,2.58-14.82.04-3.36-.87-7.11-3.37-9.52a7.927,7.927,0,0,0-9.17-1.19c-8.9,4.41-7.3,15.34-6.39,23.46Zm39.3-56.75c-.2,3.49.05,7.08,2.25,9.97,1.9,2.5,5.11,3.02,7.28.49,2.78-3.23,3.13-8.57,2.89-12.61-.3-4.97-1.71-9.72-3.16-14.45-.13-.05-.26-.1-.39-.14.7,2.25,1.39,4.47,1.94,6.68,1.3,5.25,2.01,10.85.5,16.12-.68,2.4-1.95,5.39-4.75,5.77-2.09.29-3.71-1.31-4.68-2.97-2.26-3.87-1.68-8.4-1.26-12.67.44-4.59,1.11-9.22.7-13.83-.04-.49-.09-.99-.17-1.47-.11-.01-.2-.04-.31-.06a31.174,31.174,0,0,1,.31,5.2c-.08,4.67-.86,9.29-1.14,13.96Zm-24.78-6.19c.45,4.84-.19,9.65.01,14.48.17,4.02,1.32,8.14,4.76,10.56a6.884,6.884,0,0,0,9.33-.96c2.9-3.22,2.92-7.66,2.04-11.67-1.18-5.38-3.03-10.67-4.57-15.95a68.174,68.174,0,0,1-2.21-8.23,1.208,1.208,0,0,1-.25.08c.01.11.04.2.05.31a69.754,69.754,0,0,0,2.09,7.91c.8,2.71,1.58,5.41,2.38,8.1,1.49,5.05,4.03,11.06,2,16.29a8.1,8.1,0,0,1-4.92,4.98,7.072,7.072,0,0,1-6.74-1.96c-4.02-3.75-3.77-9.57-3.54-14.6a56.076,56.076,0,0,0-.67-13.33,23.147,23.147,0,0,0-1.06-3.68l-.21.11a34.123,34.123,0,0,1,1.51,7.56ZM91.71,301.48c2.79.53,6.05.17,7.96-2.16,2.69-3.26,1.37-7.99-.11-11.45-1.58-3.71-3.87-7.06-5.64-10.67a1.585,1.585,0,0,0-.27.18c.69,1.39,1.44,2.73,2.2,4.05,2.46,4.33,6.08,9.9,4.84,15.13-1.06,4.46-5.76,5.45-9.67,4.44-6.48-1.65-9.47-7.71-13.75-12.26-.08.06-.15.12-.24.18,4.55,4.76,7.63,11.21,14.69,12.57ZM55.57,318.65a.644.644,0,0,0,.05.24,6.487,6.487,0,0,0,2.22-.59c3.71-1.76,5.57-5.92,8.81-8.32,3.97-2.92,9.58-4.09,14.03-1.54,4.12,2.36,6.51,7.26,4.86,11.86-1.44,3.99-5.05,6.76-7.99,9.65a21.329,21.329,0,0,0-5.97,9.54.994.994,0,0,0,.27.14,20.573,20.573,0,0,1,5.24-8.82c2.67-2.74,5.87-5.16,7.81-8.52a9.717,9.717,0,0,0,.11-9.97,11.4,11.4,0,0,0-9.29-5.56,15,15,0,0,0-10.98,4.48c-2.67,2.64-5.06,7.08-9.17,7.41Z" fill="#455a64"/>
              <path id="Path_67" data-name="Path 67" d="M141.51,330.31s-3.07,2.06-7.68,4.61c-8.16-9.77-25.43-27.5-25.95-28.13l33.63,23.52Z" fill="#37474f"/>
              <path id="Path_68" data-name="Path 68" d="M84.81,283.15c-2.17,1.5-4.26,3.1-6.39,4.64-2.1,1.52-4.27,2.94-6.27,4.6-2.03,1.69-3.96,3.49-5.87,5.3-.92.88-1.84,1.76-2.73,2.67a25.894,25.894,0,0,0-2.61,2.83c-.07.1.07.21.16.15a29.594,29.594,0,0,0,2.9-2.36c1.01-.85,2.02-1.72,3.02-2.58,1.95-1.65,3.93-3.26,5.87-4.92s3.72-3.45,5.63-5.12c2.05-1.79,4.2-3.45,6.33-5.14C84.89,283.19,84.85,283.12,84.81,283.15Z" fill="#37474f"/>
              <path id="Path_69" data-name="Path 69" d="M286.48,366.26c-2.01,2.46-3.86,5.08-5.72,7.66s-3.72,5.19-5.56,7.79c-3.68,5.22-7.39,10.42-11,15.68-1.98,2.89-3.93,5.81-5.76,8.81-.08.13.13.27.23.15,4-4.97,7.61-10.24,11.28-15.45s7.34-10.46,10.94-15.74c1.97-2.89,4.01-5.77,5.79-8.77.07-.12-.12-.24-.21-.13Z" fill="#37474f"/>
              <path id="Path_70" data-name="Path 70" d="M197.93,369.69c-5.59-4.4-11.38-8.56-17.17-12.69-5.76-4.11-11.52-8.23-17.37-12.21-1.68-1.14-3.37-2.26-5.07-3.39s-3.45-2.16-5.1-3.32c-.1-.07-.18.09-.09.16,1.52,1.09,2.95,2.31,4.45,3.44,1.43,1.08,2.84,2.17,4.28,3.24,2.8,2.08,5.64,4.11,8.47,6.16q8.61,6.225,17.35,12.25c3.31,2.27,6.61,4.55,10,6.72.2.13.44-.19.25-.34Z" fill="#37474f"/>
              <path id="Path_71" data-name="Path 71" d="M233.83,323.37c-5.16-4.28-10.7-8.12-16.11-12.08-5.47-4-10.92-8.04-16.41-12.01l-16.35-11.82c-5.28-3.82-10.54-7.7-16.12-11.08-3.05-1.85-6.19-3.57-9.41-5.11a61.579,61.579,0,0,0-9.72-3.97.093.093,0,0,0-.07.17c2.75,1.54,5.64,2.83,8.42,4.31q4.125,2.205,8.13,4.62c5.54,3.36,10.77,7.17,16.03,10.95,10.91,7.85,21.81,15.73,32.8,23.47,6.15,4.33,12.18,8.9,18.56,12.88.2.12.43-.18.25-.33Z" fill="#37474f"/>
            </g>
          </g>
        </g>
      </g>
    </g>
    <g id="Group_48" data-name="Group 48">
      <g id="Group_45" data-name="Group 45">
        <g id="Group_42" data-name="Group 42">
          <path id="Path_72" data-name="Path 72" d="M382.74,342a60.239,60.239,0,0,0-3.06,10.63c.08.19-.01.86-.1.67-.08.59-.98.39-.92-.2.05-.38.1-.76.16-1.13-1.84-2.85-4.74-4.84-6.98-7.39a14.474,14.474,0,0,1-3.5-7.14c-1.31-7.32,1.41-14.64-.32-21.99-1.49-6.33-4.77-12.05-7.43-17.93-2.81-6.21-4.68-12.63-4.21-19.51.35-5.27,1.72-12.2,6.13-15.71,4.68-3.73,9.6-.05,12.46,4.02,8.27,11.79,11.18,25.9,11.47,40.04.16,7.83.34,15.7-.71,23.47a62.82,62.82,0,0,1-2.99,12.18Z" fill="#ffc727"/>
          <path id="Path_73" data-name="Path 73" d="M379.42,355.47a133.182,133.182,0,0,0,2.05-21.91c.02-.03.04-.04.04-.08.74-5.9,1.83-11.74,2.23-17.69a105.406,105.406,0,0,0-.6-19.29c0-.07-.12-.07-.12,0a125.641,125.641,0,0,1,.1,18.81c-.23,3.35-.61,6.7-1.14,10.01-.17,1.08-.39,2.16-.58,3.25h0a117.682,117.682,0,0,0-12.69-48.43c-.1-.2-.47-.04-.37.17a122.286,122.286,0,0,1,10.68,36.03c-3.64-8.86-9.75-16.47-13.97-25.06-.02-.05-.1,0-.08.04,3.61,9.45,10.39,17.31,14.25,26.65.45,3.69.75,7.4.87,11.11a123.237,123.237,0,0,1-.5,15.25,174.961,174.961,0,0,1-6.23-16.36c-.04-.15-.26-.07-.23.08,1.32,5.86,3.26,12.23,6.36,17.44-.36,3.58-.84,7.16-1.43,10.71-1.57,9.49-4.2,18.74-5.95,28.19a.22.22,0,0,0,.43.09,218.8,218.8,0,0,0,6.87-29.04Z" fill="#263238"/>
          <path id="Path_74" data-name="Path 74" d="M377.05,280.74c-.02-.07-.13-.04-.11.04,1.24,5.01,1.71,10,2.45,15.08a.185.185,0,0,0,.37-.02c.02-5.07-1.25-10.26-2.7-15.09Z" fill="#263238"/>
        </g>
        <g id="Group_43" data-name="Group 43">
          <path id="Path_75" data-name="Path 75" d="M419.22,305.63a73.475,73.475,0,0,1-4.88,7.82c-3.74,5.37-7.57,10.26-8.86,16.84a41.432,41.432,0,0,1-2.19,8.67,26.382,26.382,0,0,1-4.24,6.52c-3.93,4.6-8.63,8.43-12.33,13.24a60.6,60.6,0,0,0-9.01,16.57c-.11.33-.63.18-.52-.14a.489.489,0,0,1,.03-.07c0-.02-.03-.04-.02-.07,1-14.3,3.65-28.53,9.44-41.72a146.094,146.094,0,0,1,8.76-16.84,41.82,41.82,0,0,1,10.73-12.42c2.9-2.11,9.13-6.03,12.65-3.23,1.69,1.34,1.36,3.15.46,4.85Z" fill="#ffc727"/>
          <path id="Path_76" data-name="Path 76" d="M401.5,336.41a117.561,117.561,0,0,1-9.53,11.03c-1.57,1.66-3.16,3.29-4.72,4.95-.74.78-1.56,1.55-2.25,2.41.53-1.46,1.06-2.92,1.6-4.38,2.6-7,5.13-14.08,8.6-20.71a145.478,145.478,0,0,1,11.93-18.34c.11-.15-.14-.3-.25-.15-3.53,4.63-7.11,9.25-10.19,14.2A79.449,79.449,0,0,0,392.1,334a139.091,139.091,0,0,1,6.88-18.65c.02-.05-.05-.1-.08-.05a65.666,65.666,0,0,0-7.14,19.4v.03q-1.215,2.67-2.3,5.42c-3.08,7.73-5.9,15.58-8.58,23.46a86.487,86.487,0,0,1,3.04-15.69c.04-.12-.14-.17-.18-.05a50.332,50.332,0,0,0-3.14,16.55c-1.01,3-2.01,6.01-2.99,9.01-2.09,6.42-4.52,12.92-6.04,19.5a.135.135,0,0,0,.26.07c1.36-3.49,2.34-7.15,3.52-10.71s2.4-7.12,3.63-10.67q2.7-7.755,5.53-15.46c1.09-1.84,2.97-3.38,4.42-4.87,1.59-1.63,3.18-3.27,4.74-4.93a79.556,79.556,0,0,0,7.97-9.88c.05-.08-.07-.14-.12-.07Z" fill="#263238"/>
          <path id="Path_77" data-name="Path 77" d="M402.75,330.39a74.732,74.732,0,0,0-9.46,12.02c-.03.05.05.13.09.07,3.18-3.98,6.31-8.01,9.48-12,.05-.07-.06-.15-.12-.09Z" fill="#263238"/>
        </g>
        <g id="Group_44" data-name="Group 44">
          <path id="Path_78" data-name="Path 78" d="M343.45,311.3c1.51,3.37,3.21,7.41,2.02,11.15-.76,2.36-2.73,4.14-3.31,6.57-1.29,5.37,3.75,9.53,7.41,12.52,9.1,7.45,21.91,14.58,22.31,27.88.02.47.83.44.82-.02a.277.277,0,0,0-.01-.09c.02-.03.05-.03.06-.07a50.468,50.468,0,0,0,1.93-20.03c-.75-6.91-3.05-13.29-5.91-19.59-4.83-10.66-9.98-21.6-18.07-30.23-2.24-2.39-6.88-6.75-9.35-2.15-2.4,4.47.25,9.96,2.1,14.08Z" fill="#ffc727"/>
          <path id="Path_79" data-name="Path 79" d="M350.16,333.53c5.74,7.7,15.64,12.73,20.39,21.18a79.256,79.256,0,0,0-13.79-34.12.256.256,0,0,1,.4-.32,63.955,63.955,0,0,1,11.91,21.84A91.158,91.158,0,0,0,364.65,326c-.07-.2.21-.34.3-.14a59.486,59.486,0,0,1,4.69,18.08c5.48,18.58,3.96,39.53.44,58.14-.05.26-.46.23-.42-.04,1.98-14.75,3.33-29.82,1.31-44.64-.04-.31-.09-.62-.14-.92-5.18-9.11-15.03-14.11-20.78-22.84-.06-.08.06-.18.12-.1Z" fill="#263238"/>
          <path id="Path_80" data-name="Path 80" d="M349.29,327.34c3.08,3.48,6.09,7.03,9.17,10.51.03.03-.02.09-.06.06a49.894,49.894,0,0,1-9.34-10.39.142.142,0,0,1,.22-.18Z" fill="#263238"/>
          <path id="Path_81" data-name="Path 81" d="M350.18,313.76a107.137,107.137,0,0,0,8.71,15.08c.04.06-.04.14-.09.08a49.777,49.777,0,0,1-8.81-15.07.105.105,0,0,1,.19-.09Z" fill="#263238"/>
        </g>
      </g>
      <g id="Group_47" data-name="Group 47">
        <g id="Group_46" data-name="Group 46">
          <path id="Path_82" data-name="Path 82" d="M360.02,415.73H390l-4.04-40.34H364.64Z" fill="#455a64"/>
          <path id="Path_83" data-name="Path 83" d="M363.88,381.95h22.74l-.66-6.56H364.63Z" fill="#263238"/>
        </g>
        <rect id="Rectangle_2" data-name="Rectangle 2" width="28.1" height="6.44" transform="translate(389.06 377.36) rotate(180)" fill="#455a64"/>
      </g>
    </g>
  </g>
</svg>
