<svg id="Group_378" data-name="Group 378" xmlns="http://www.w3.org/2000/svg" width="170.167" height="106.357" viewBox="0 0 170.167 106.357">
  <rect id="Rectangle_4" data-name="Rectangle 4" width="30.082" height="30.082" transform="translate(42.54 21.272) rotate(45)" fill="#90ba4c"/>
  <path id="Rectangle_11" data-name="Rectangle 11" d="M0,0H30.082V30.082H3.857A3.857,3.857,0,0,1,0,26.225Z" transform="translate(21.271 42.542) rotate(45)" fill="#719d2c"/>
  <rect id="Rectangle_7" data-name="Rectangle 7" width="30.082" height="30.082" transform="translate(85.085 21.272) rotate(45)" fill="#90ba4c"/>
  <rect id="Rectangle_9" data-name="Rectangle 9" width="30.082" height="30.082" transform="translate(63.813 42.542) rotate(45)" fill="#719d2c"/>
  <path id="Rectangle_13" data-name="Rectangle 13" d="M0,0H30.082V26.225a3.857,3.857,0,0,1-3.857,3.857H0Z" transform="translate(85.085 63.814) rotate(45)" fill="#507d0c"/>
  <path id="Rectangle_14" data-name="Rectangle 14" d="M0,0H30.082V26.225a3.857,3.857,0,0,1-3.857,3.857H0Z" transform="translate(42.54 63.814) rotate(45)" fill="#507d0c"/>
  <path id="Rectangle_15" data-name="Rectangle 15" d="M0,0H30.082V26.225a3.857,3.857,0,0,1-3.857,3.857H0Z" transform="translate(127.627 63.814) rotate(45)" fill="#507d0c"/>
  <rect id="Rectangle_10" data-name="Rectangle 10" width="30.082" height="30.082" transform="translate(106.354 42.542) rotate(45)" fill="#719d2c"/>
  <path id="Rectangle_12" data-name="Rectangle 12" d="M0,0H26.225a3.857,3.857,0,0,1,3.857,3.857V30.082H0Z" transform="translate(148.895 42.542) rotate(45)" fill="#719d2c"/>
  <rect id="Rectangle_8" data-name="Rectangle 8" width="30.082" height="30.082" transform="translate(127.627 21.272) rotate(45)" fill="#90ba4c"/>
  <path id="Rectangle_5" data-name="Rectangle 5" d="M2.893,0H30.082V30.082H0V2.893A2.893,2.893,0,0,1,2.893,0Z" transform="translate(63.813 0) rotate(45)" fill="#bcd88e"/>
  <path id="Rectangle_6" data-name="Rectangle 6" d="M2.893,0H30.082V30.082H0V2.893A2.893,2.893,0,0,1,2.893,0Z" transform="translate(106.354 0) rotate(45)" fill="#bcd88e"/>
</svg>
