<svg xmlns="http://www.w3.org/2000/svg" width="499.144" height="106.357" viewBox="0 0 499.144 106.357">
  <g id="Group_378" data-name="Group 378" transform="translate(-4645 -1894)">
    <g id="Group_378-2" data-name="Group 378" transform="translate(4645 1894)">
      <rect id="Rectangle_4" data-name="Rectangle 4" width="30.082" height="30.082" transform="translate(42.54 21.272) rotate(45)" fill="#90ba4c"/>
      <path id="Rectangle_11" data-name="Rectangle 11" d="M0,0H30.082V30.082H3.857A3.857,3.857,0,0,1,0,26.225Z" transform="translate(21.271 42.542) rotate(45)" fill="#719d2c"/>
      <rect id="Rectangle_7" data-name="Rectangle 7" width="30.082" height="30.082" transform="translate(85.085 21.272) rotate(45)" fill="#90ba4c"/>
      <rect id="Rectangle_9" data-name="Rectangle 9" width="30.082" height="30.082" transform="translate(63.813 42.542) rotate(45)" fill="#719d2c"/>
      <path id="Rectangle_13" data-name="Rectangle 13" d="M0,0H30.082V26.225a3.857,3.857,0,0,1-3.857,3.857H0Z" transform="translate(85.085 63.814) rotate(45)" fill="#507d0c"/>
      <path id="Rectangle_14" data-name="Rectangle 14" d="M0,0H30.082V26.225a3.857,3.857,0,0,1-3.857,3.857H0Z" transform="translate(42.54 63.814) rotate(45)" fill="#507d0c"/>
      <path id="Rectangle_15" data-name="Rectangle 15" d="M0,0H30.082V26.225a3.857,3.857,0,0,1-3.857,3.857H0Z" transform="translate(127.627 63.814) rotate(45)" fill="#507d0c"/>
      <rect id="Rectangle_10" data-name="Rectangle 10" width="30.082" height="30.082" transform="translate(106.354 42.542) rotate(45)" fill="#719d2c"/>
      <path id="Rectangle_12" data-name="Rectangle 12" d="M0,0H26.225a3.857,3.857,0,0,1,3.857,3.857V30.082H0Z" transform="translate(148.895 42.542) rotate(45)" fill="#719d2c"/>
      <rect id="Rectangle_8" data-name="Rectangle 8" width="30.082" height="30.082" transform="translate(127.627 21.272) rotate(45)" fill="#90ba4c"/>
      <path id="Rectangle_5" data-name="Rectangle 5" d="M2.893,0H30.082V30.082H0V2.893A2.893,2.893,0,0,1,2.893,0Z" transform="translate(63.813 0) rotate(45)" fill="#bcd88e"/>
      <path id="Rectangle_6" data-name="Rectangle 6" d="M2.893,0H30.082V30.082H0V2.893A2.893,2.893,0,0,1,2.893,0Z" transform="translate(106.354 0) rotate(45)" fill="#bcd88e"/>
    </g>
    <path id="Path_724" data-name="Path 724" d="M20.088,0H11.763V-32.334H1.1v-6.929H30.75v6.929H20.088Zm24.25-30.024V0H36.147V-30.024ZM40.256-41.787a5.685,5.685,0,0,1,3.142.846,3.466,3.466,0,0,1,1.316,3.156A3.506,3.506,0,0,1,43.4-34.63a5.554,5.554,0,0,1-3.142.873A5.538,5.538,0,0,1,37.1-34.63a3.522,3.522,0,0,1-1.3-3.156,3.481,3.481,0,0,1,1.3-3.156A5.669,5.669,0,0,1,40.256-41.787ZM65.125.537a16.377,16.377,0,0,1-7.6-1.625,10.675,10.675,0,0,1-4.78-5.035,20.191,20.191,0,0,1-1.638-8.728,18.932,18.932,0,0,1,1.866-8.983,11.679,11.679,0,0,1,5.183-5.116,17.167,17.167,0,0,1,7.694-1.638,21.107,21.107,0,0,1,5.385.6A21.562,21.562,0,0,1,75.2-28.547l-2.417,6.338q-1.934-.779-3.6-1.276a11.6,11.6,0,0,0-3.33-.5,6.033,6.033,0,0,0-3.572,1.007,5.943,5.943,0,0,0-2.122,3.021,15.6,15.6,0,0,0-.7,5.049,13.929,13.929,0,0,0,.752,4.941A5.922,5.922,0,0,0,62.385-7.05,6.083,6.083,0,0,0,65.85-6.1a13.9,13.9,0,0,0,4.539-.685A17.3,17.3,0,0,0,74.255-8.7v7.009A13.741,13.741,0,0,1,70.321.013,21.516,21.516,0,0,1,65.125.537ZM89.4-41.787V-23.1q0,1.692-.134,3.384t-.3,3.384h.107q.833-1.182,1.705-2.336t1.866-2.229l8.406-9.131H110.3L98.372-17,111.021,0h-9.453L92.92-12.166,89.4-9.346V0H81.211V-41.787Zm38.3,11.2a15.087,15.087,0,0,1,7.17,1.6,11.094,11.094,0,0,1,4.646,4.633,15.427,15.427,0,0,1,1.638,7.412v3.975H121.79a7.866,7.866,0,0,0,2.081,5.438,7.257,7.257,0,0,0,5.411,1.974,21.929,21.929,0,0,0,5.264-.591,26.785,26.785,0,0,0,4.915-1.772v6.338A19.548,19.548,0,0,1,134.8.027a29.168,29.168,0,0,1-5.895.51,18.29,18.29,0,0,1-7.99-1.665A12.336,12.336,0,0,1,115.465-6.2a16.956,16.956,0,0,1-1.974-8.594,19.21,19.21,0,0,1,1.786-8.768,12.082,12.082,0,0,1,4.982-5.264A15.182,15.182,0,0,1,127.7-30.588Zm.054,5.828a5.445,5.445,0,0,0-3.961,1.531,7.243,7.243,0,0,0-1.813,4.807h11.494a8.247,8.247,0,0,0-.658-3.25,5.162,5.162,0,0,0-1.88-2.256A5.625,5.625,0,0,0,127.751-24.761Zm32.71,18.772a12.676,12.676,0,0,0,2.618-.269,25.877,25.877,0,0,0,2.538-.671v6.1a15.446,15.446,0,0,1-3.263.98A21.729,21.729,0,0,1,158.1.537a12.64,12.64,0,0,1-4.821-.873,6.721,6.721,0,0,1-3.357-3.035A12.347,12.347,0,0,1,148.7-9.4V-23.875h-3.921v-3.464l4.512-2.739,2.363-6.338h5.237v6.392H165.3v6.15H156.89V-9.4a3.2,3.2,0,0,0,.98,2.565A3.828,3.828,0,0,0,160.461-5.989Zm58.733-14.019a22.069,22.069,0,0,1-2.538,11.078,16.024,16.024,0,0,1-7.345,6.687A27.213,27.213,0,0,1,197.737,0H186.619V-39.263h12.327a24.432,24.432,0,0,1,10.715,2.189A16,16,0,0,1,216.7-30.6,20.735,20.735,0,0,1,219.194-20.007Zm-8.647.215a17.364,17.364,0,0,0-1.276-7.157,8.576,8.576,0,0,0-3.76-4.149,12.774,12.774,0,0,0-6.136-1.343h-4.431V-6.875h3.572q6.1,0,9.064-3.25T210.547-19.792Zm28.521-10.8a15.087,15.087,0,0,1,7.17,1.6,11.094,11.094,0,0,1,4.646,4.633,15.427,15.427,0,0,1,1.638,7.412v3.975H233.159a7.866,7.866,0,0,0,2.081,5.438,7.257,7.257,0,0,0,5.411,1.974,21.929,21.929,0,0,0,5.264-.591,26.785,26.785,0,0,0,4.915-1.772v6.338A19.548,19.548,0,0,1,246.171.027a29.168,29.168,0,0,1-5.895.51,18.29,18.29,0,0,1-7.99-1.665A12.336,12.336,0,0,1,226.835-6.2a16.956,16.956,0,0,1-1.974-8.594,19.21,19.21,0,0,1,1.786-8.768,12.082,12.082,0,0,1,4.982-5.264A15.182,15.182,0,0,1,239.067-30.588Zm.054,5.828a5.445,5.445,0,0,0-3.961,1.531,7.243,7.243,0,0,0-1.813,4.807h11.494a8.247,8.247,0,0,0-.658-3.25,5.162,5.162,0,0,0-1.88-2.256A5.625,5.625,0,0,0,239.121-24.761ZM280.129-8.916a8.964,8.964,0,0,1-1.437,5.17,8.786,8.786,0,0,1-4.283,3.2,20.01,20.01,0,0,1-7.09,1.088,30.953,30.953,0,0,1-5.385-.4,22.181,22.181,0,0,1-4.525-1.343V-7.976a31.762,31.762,0,0,0,5.25,1.813,20.39,20.39,0,0,0,4.928.712,6.235,6.235,0,0,0,3.424-.712,2.173,2.173,0,0,0,1.034-1.866,2.336,2.336,0,0,0-.416-1.356,5.458,5.458,0,0,0-1.786-1.37,47.165,47.165,0,0,0-4.3-2,27.839,27.839,0,0,1-4.633-2.39,7.9,7.9,0,0,1-2.686-2.86,8.952,8.952,0,0,1-.873-4.2,7,7,0,0,1,3.236-6.271,15.679,15.679,0,0,1,8.661-2.108,24.514,24.514,0,0,1,5.331.564,26.058,26.058,0,0,1,5.223,1.8l-2.471,5.908a42.58,42.58,0,0,0-4.2-1.584,13.37,13.37,0,0,0-4.015-.618,5.971,5.971,0,0,0-2.712.483,1.573,1.573,0,0,0-.913,1.477,1.957,1.957,0,0,0,.47,1.289,5.964,5.964,0,0,0,1.826,1.249q1.356.685,3.988,1.759a31.95,31.95,0,0,1,4.431,2.189,8.429,8.429,0,0,1,2.9,2.82A8.251,8.251,0,0,1,280.129-8.916Zm14.583-32.871V-23.1q0,1.692-.134,3.384t-.3,3.384h.107q.833-1.182,1.705-2.336t1.866-2.229l8.406-9.131h9.238L303.682-17,316.331,0h-9.453L298.23-12.166l-3.518,2.82V0h-8.191V-41.787Z" transform="translate(4827.813 1969.314)" fill="#fff"/>
  </g>
</svg>
